<?xml version="1.0" encoding="utf-8"?>
<!-- Generator: Adobe Illustrator 23.0.1, SVG Export Plug-In . SVG Version: 6.00 Build 0)  -->
<svg version="1.1" id="Layer_1" xmlns="http://www.w3.org/2000/svg" xmlns:xlink="http://www.w3.org/1999/xlink" x="0px" y="0px"
	 viewBox="0 0 42.43 36" style="enable-background:new 0 0 42.43 36;" xml:space="preserve">
<style type="text/css">
	.st0{fill:#F89827;}
</style>
<g>
	<path class="st0" d="M33.91,26.44c0.33-0.54,0.76-0.95,1.28-1.24c0.54-0.3,1.1-0.46,1.7-0.46c0.6,0,1.17,0.16,1.7,0.46
		c0.52,0.32,0.94,0.74,1.26,1.26c0.32,0.51,0.47,1.07,0.47,1.68c0,1.02-0.33,1.86-0.99,2.52c-0.67,0.67-1.49,1.01-2.44,1.01
		c-0.64,0-1.21-0.16-1.73-0.46c-0.54-0.3-0.96-0.73-1.26-1.28c-0.3-0.56-0.46-1.16-0.46-1.8C33.44,27.52,33.59,26.95,33.91,26.44z"
		/>
	<g>
		<polygon points="31.41,4.26 27.37,17.41 20.78,4.33 17.48,10.73 20.85,17.53 28.15,31.74 28.3,31.74 38.43,4.26 		"/>
		<polygon points="22.92,31.67 8.8,4.31 2.12,4.31 16.24,31.67 		"/>
	</g>
</g>
</svg>
