<?xml version="1.0" encoding="utf-8"?>
<!-- Generator: Adobe Illustrator 23.0.1, SVG Export Plug-In . SVG Version: 6.00 Build 0)  -->
<svg version="1.1" id="Layer_1" xmlns="http://www.w3.org/2000/svg" xmlns:xlink="http://www.w3.org/1999/xlink" x="0px" y="0px"
	 viewBox="0 0 123 70.29" style="enable-background:new 0 0 123 70.29;" xml:space="preserve">
<style type="text/css">
	.st0{fill:#231F20;}
	.st1{fill:#F89827;}
</style>
<g>
	<path class="st0" d="M62.32,38.1c-0.45,0.2-0.77,0.33-0.98,0.4c-1.48,0.57-3.03,0.86-4.65,0.86c-2.13,0-4.15-0.5-6.05-1.49
		c-1.9-1-3.4-2.37-4.52-4.1c-1.13-1.76-1.7-3.72-1.7-5.88c0-1.63,0.33-3.15,0.98-4.56c0.66-1.39,1.56-2.61,2.7-3.64
		c1.13-1.03,2.44-1.82,3.93-2.36c1.49-0.57,3.04-0.86,4.65-0.86c1.59,0,3.14,0.28,4.65,0.84c1.51,0.56,2.82,1.35,3.93,2.39
		c1.17,1.06,2.08,2.27,2.72,3.64c0.66,1.41,0.98,2.93,0.98,4.56l-0.02,10.9l-6.63-0.06V38.1z M51.88,25.19
		c-0.52,0.82-0.77,1.72-0.77,2.7c0,1.48,0.56,2.76,1.67,3.83c1.1,1.06,2.41,1.59,3.91,1.59c1.52,0,2.83-0.53,3.93-1.59
		c1.12-1.07,1.67-2.35,1.67-3.83c0-0.98-0.26-1.88-0.77-2.7c-0.52-0.82-1.21-1.48-2.07-1.97c-0.85-0.47-1.77-0.71-2.76-0.71
		c-0.96,0-1.88,0.24-2.74,0.71C53.08,23.71,52.39,24.37,51.88,25.19z"/>
	<path class="st0" d="M73.23,9.04l6.68-0.02v29.67l-6.68,0.08V9.04z"/>
	<path class="st0" d="M106.75,23.35c0.63,1.41,0.94,2.92,0.94,4.52v0.19c0,0.07-0.01,0.15-0.02,0.23l-0.04,0.36h-2.59v0.04h-14.4
		c0.17,1.17,0.68,2.18,1.53,3.03c1.07,1.06,2.33,1.59,3.77,1.59c1.45,0,2.71-0.53,3.77-1.59l0.04-0.04l0.06-0.08l0.06-0.06
		l0.04-0.06l3.6,5.15c-1.03,0.84-2.08,1.47-3.14,1.9c-1.42,0.56-2.9,0.84-4.44,0.84c-2.08,0-4.01-0.5-5.8-1.49
		c-1.83-1-3.27-2.38-4.33-4.12c-1.09-1.74-1.63-3.7-1.63-5.88c0-1.63,0.31-3.14,0.94-4.52c0.63-1.39,1.49-2.61,2.59-3.64
		c1.12-1.06,2.37-1.86,3.77-2.41c1.44-0.56,2.92-0.84,4.46-0.84c1.53,0,3.01,0.28,4.44,0.84c1.41,0.54,2.67,1.34,3.79,2.39
		C105.25,20.71,106.12,21.93,106.75,23.35z M95.93,22.51c-0.93,0-1.81,0.24-2.64,0.71c-0.5,0.31-0.99,0.74-1.46,1.3h8.2
		c-0.47-0.56-0.96-0.99-1.46-1.3C97.74,22.75,96.86,22.51,95.93,22.51z"/>
	<path class="st1" d="M112.47,33.56c0.36-0.59,0.83-1.04,1.4-1.36c0.59-0.33,1.21-0.5,1.86-0.5c0.66,0,1.28,0.17,1.86,0.5
		c0.57,0.35,1.03,0.81,1.38,1.38c0.35,0.56,0.52,1.17,0.52,1.84c0,1.12-0.36,2.04-1.09,2.76c-0.74,0.74-1.63,1.11-2.68,1.11
		c-0.7,0-1.33-0.17-1.9-0.5c-0.59-0.33-1.05-0.8-1.38-1.4c-0.33-0.61-0.5-1.27-0.5-1.97C111.95,34.74,112.12,34.12,112.47,33.56z"/>
	<path class="st0" d="M107.72,1.21c0,0,0.01,0.02,0.02,0.06c0.01,0.04,0.03,0.1,0.05,0.18c0.02,0.08,0.04,0.17,0.06,0.28
		c0.02,0.11,0.05,0.23,0.07,0.37c0.05,0.27,0.1,0.59,0.14,0.95c0.02,0.18,0.03,0.36,0.05,0.55c0.01,0.05,0,0.09-0.02,0.12
		c-0.02,0.03-0.06,0.04-0.09,0.06c-0.07,0.03-0.11,0.1-0.16,0.16c-0.78,0.92-1.81,2.15-2.85,3.39c-1.04,1.23-2.07,2.46-2.85,3.39
		c-0.03,0.03-0.05,0.06-0.07,0.09c-0.02,0.03-0.05,0.06-0.06,0.09c-0.01,0.04-0.02,0.08-0.05,0.1c-0.03,0.02-0.07,0.03-0.12,0.03
		c-0.2,0.01-0.38,0.03-0.56,0.04c-0.36,0.02-0.68,0.03-0.95,0.03c-0.14,0-0.26,0-0.37,0c-0.11,0-0.2-0.01-0.28-0.01
		c-0.08,0-0.14-0.01-0.18-0.01c-0.04,0-0.06,0-0.06,0s0-0.02-0.01-0.06c-0.01-0.04-0.03-0.1-0.04-0.18
		c-0.02-0.08-0.04-0.17-0.06-0.28c-0.02-0.11-0.04-0.23-0.07-0.36c-0.05-0.27-0.09-0.59-0.13-0.94c-0.02-0.18-0.04-0.36-0.05-0.56
		c-0.01-0.05-0.01-0.1,0.01-0.13c0.02-0.03,0.06-0.05,0.09-0.06c0.04-0.02,0.06-0.04,0.08-0.07c0.02-0.03,0.05-0.06,0.07-0.09
		c0.78-0.92,1.81-2.16,2.85-3.39c1.04-1.23,2.07-2.46,2.85-3.39c0.05-0.06,0.11-0.11,0.13-0.18c0.01-0.04,0.02-0.08,0.05-0.1
		c0.02-0.03,0.06-0.04,0.11-0.04c0.2-0.02,0.38-0.03,0.56-0.04c0.36-0.02,0.68-0.03,0.95-0.03c0.14,0,0.26,0,0.37,0.01
		c0.11,0,0.21,0.01,0.29,0.01c0.08,0,0.14,0.01,0.18,0.01C107.7,1.2,107.72,1.21,107.72,1.21z"/>
	<g>
		<polygon class="st0" points="36.23,8.79 31.8,23.21 24.57,8.87 20.95,15.89 24.65,23.34 32.65,38.93 32.82,38.93 43.92,8.79 		"/>
		<polygon class="st0" points="26.91,38.85 11.43,8.85 4.1,8.85 19.59,38.85 		"/>
	</g>
	<g>
		<path class="st0" d="M0.9,51.92c0.04-0.77,0.16-1.55,0.37-2.35s0.51-1.56,0.9-2.31c0.39-0.74,0.86-1.44,1.41-2.1
			s1.2-1.23,1.94-1.72c0.74-0.49,1.56-0.88,2.47-1.16c0.91-0.28,1.9-0.42,2.98-0.42c1.11,0,2.11,0.14,2.99,0.43
			c0.89,0.29,1.66,0.67,2.33,1.17c0.67,0.49,1.24,1.07,1.71,1.72s0.85,1.36,1.14,2.1c0.29,0.74,0.49,1.51,0.6,2.31
			c0.11,0.8,0.15,1.57,0.11,2.33c-0.04,0.76-0.16,1.53-0.38,2.33s-0.51,1.56-0.89,2.3c-0.38,0.74-0.85,1.44-1.4,2.11
			c-0.55,0.66-1.2,1.24-1.93,1.73c-0.73,0.49-1.55,0.88-2.45,1.17c-0.9,0.29-1.9,0.43-2.98,0.43c-1.16,0-2.19-0.14-3.1-0.42
			c-0.9-0.28-1.69-0.65-2.37-1.13s-1.24-1.04-1.7-1.69c-0.46-0.65-0.83-1.35-1.11-2.09c-0.28-0.75-0.47-1.52-0.57-2.33
			C0.88,53.52,0.85,52.72,0.9,51.92z M5.14,51.6c-0.04,0.57-0.03,1.18,0.02,1.82c0.05,0.64,0.14,1.28,0.29,1.91
			c0.14,0.63,0.34,1.23,0.6,1.81c0.26,0.58,0.58,1.09,0.97,1.53s0.84,0.79,1.37,1.05c0.53,0.26,1.14,0.39,1.84,0.38
			c0.63,0,1.2-0.11,1.71-0.34c0.5-0.23,0.95-0.53,1.34-0.92c0.39-0.38,0.73-0.83,1.01-1.34c0.29-0.51,0.53-1.05,0.72-1.62
			c0.19-0.57,0.34-1.15,0.44-1.75c0.1-0.59,0.17-1.17,0.19-1.74c0.06-1.26,0.01-2.42-0.16-3.49c-0.17-1.06-0.46-1.98-0.88-2.76
			c-0.42-0.77-0.96-1.37-1.64-1.8c-0.68-0.43-1.5-0.63-2.45-0.6c-0.63,0.02-1.19,0.14-1.69,0.38c-0.5,0.24-0.95,0.55-1.33,0.94
			c-0.39,0.39-0.72,0.85-1.01,1.37c-0.28,0.52-0.52,1.07-0.7,1.64c-0.19,0.58-0.33,1.17-0.44,1.77C5.23,50.45,5.16,51.04,5.14,51.6z
			"/>
		<path class="st0" d="M22.67,61.85c0.04-0.52,0.09-1.11,0.14-1.77c0.05-0.66,0.1-1.35,0.16-2.08c0.06-0.73,0.11-1.47,0.17-2.23
			c0.05-0.76,0.1-1.5,0.15-2.22c0.05-0.72,0.14-1.99,0.27-3.79l-2.19,0.03l0.24-1.98h2.21c0.12-1.05,0.31-2.02,0.6-2.9
			c0.28-0.88,0.66-1.63,1.13-2.26c0.47-0.63,1.05-1.12,1.74-1.46c0.69-0.34,1.5-0.52,2.44-0.52c0.84,0,1.48,0.19,1.93,0.56
			c0.45,0.38,0.67,0.87,0.67,1.47c0,0.16-0.03,0.34-0.09,0.54c-0.06,0.2-0.16,0.38-0.29,0.55c-0.13,0.17-0.31,0.31-0.53,0.42
			c-0.22,0.11-0.48,0.16-0.8,0.15c-0.21-0.01-0.4-0.06-0.58-0.14c-0.18-0.09-0.33-0.2-0.46-0.36c-0.12-0.15-0.22-0.33-0.27-0.53
			c-0.06-0.2-0.07-0.43-0.03-0.67c-0.07-0.04-0.19-0.07-0.35-0.07c-0.31,0-0.57,0.17-0.77,0.51c-0.2,0.34-0.36,0.77-0.48,1.29
			c-0.12,0.52-0.21,1.08-0.28,1.69c-0.07,0.61-0.12,1.18-0.17,1.71h3.53l-0.17,1.88l-3.47,0.05c-0.13,1.84-0.21,3.12-0.27,3.84
			c-0.05,0.72-0.11,1.46-0.17,2.22c-0.06,0.76-0.12,1.5-0.18,2.22c-0.06,0.72-0.13,1.41-0.19,2.06c-0.06,0.65-0.13,1.24-0.19,1.76
			c-0.13,1.07-0.33,2.03-0.62,2.91c-0.29,0.87-0.67,1.62-1.15,2.25c-0.48,0.63-1.06,1.12-1.75,1.46c-0.69,0.34-1.5,0.52-2.44,0.52
			c-0.84,0-1.49-0.18-1.94-0.54c-0.45-0.36-0.68-0.84-0.68-1.45c0-0.16,0.03-0.34,0.09-0.54c0.06-0.2,0.16-0.39,0.29-0.57
			c0.13-0.18,0.31-0.33,0.53-0.44c0.22-0.12,0.49-0.17,0.8-0.16c0.21,0.01,0.4,0.06,0.58,0.14c0.18,0.09,0.33,0.21,0.46,0.36
			c0.13,0.15,0.22,0.33,0.27,0.53c0.06,0.2,0.07,0.43,0.03,0.67c0.07,0.05,0.19,0.07,0.35,0.07c0.31,0,0.57-0.17,0.77-0.51
			c0.2-0.34,0.36-0.77,0.48-1.29c0.12-0.52,0.21-1.08,0.28-1.68C22.57,62.96,22.63,62.39,22.67,61.85z"/>
		<path class="st0" d="M38.7,59.72c0.3-0.02,0.58-0.05,0.82-0.09c0.25-0.05,0.46-0.14,0.64-0.29c0.18-0.15,0.32-0.39,0.42-0.7
			c0.1-0.31,0.17-0.75,0.19-1.3l0.55-10.53c0.01-0.25,0.02-0.5,0.05-0.74c0.02-0.24,0.04-0.47,0.06-0.69
			c0.02-0.22,0.04-0.42,0.06-0.6c0.02-0.18,0.05-0.33,0.07-0.44c-0.15,0.01-0.33,0.02-0.52,0.03s-0.39,0.02-0.59,0.03
			c-0.2,0.01-0.38,0.02-0.55,0.02c-0.17,0-0.3,0.01-0.4,0.01l0.11-2.12l7.55-0.05c1.1-0.01,2.08,0.09,2.95,0.29s1.59,0.52,2.18,0.94
			c0.59,0.42,1.01,0.94,1.29,1.58c0.27,0.63,0.36,1.36,0.27,2.2c-0.05,0.39-0.16,0.78-0.35,1.17c-0.19,0.39-0.45,0.75-0.78,1.09
			c-0.34,0.34-0.75,0.65-1.23,0.92c-0.49,0.28-1.06,0.5-1.71,0.67v0.03c0.9,0.14,1.68,0.37,2.32,0.69c0.64,0.32,1.17,0.69,1.58,1.13
			c0.41,0.43,0.7,0.92,0.88,1.45c0.18,0.53,0.25,1.08,0.23,1.66c-0.05,0.89-0.25,1.68-0.61,2.36c-0.36,0.68-0.85,1.25-1.46,1.71
			c-0.61,0.46-1.33,0.81-2.15,1.04c-0.82,0.23-1.71,0.35-2.67,0.35H38.6L38.7,59.72z M44.45,59.59c0.48,0,0.94,0,1.38-0.01
			c0.44-0.01,0.88-0.02,1.31-0.03c0.55-0.03,1.04-0.13,1.45-0.31c0.41-0.18,0.75-0.43,1.03-0.75c0.27-0.31,0.48-0.68,0.63-1.11
			c0.15-0.43,0.23-0.89,0.26-1.4c0.04-0.63-0.04-1.15-0.22-1.58c-0.18-0.43-0.43-0.77-0.75-1.03c-0.32-0.26-0.69-0.44-1.11-0.55
			c-0.42-0.11-0.85-0.16-1.29-0.16c-0.46,0-0.85,0-1.19,0c-0.34,0-0.68,0.01-1.04,0.03l-0.23,4.47c-0.02,0.25-0.04,0.5-0.05,0.73
			c-0.02,0.24-0.04,0.46-0.05,0.68c-0.02,0.21-0.04,0.41-0.06,0.58C44.5,59.33,44.48,59.48,44.45,59.59z M46.46,50.71
			c0.58-0.01,1.07-0.11,1.48-0.31c0.4-0.2,0.73-0.46,0.99-0.8c0.26-0.33,0.45-0.72,0.58-1.17c0.12-0.44,0.2-0.91,0.23-1.41
			c0.03-0.55-0.04-1-0.19-1.37c-0.15-0.37-0.36-0.66-0.62-0.88c-0.26-0.22-0.57-0.38-0.91-0.47c-0.34-0.09-0.68-0.13-1.03-0.12
			c-0.23,0.01-0.45,0.04-0.64,0.08c-0.2,0.05-0.37,0.14-0.52,0.29c-0.15,0.15-0.28,0.38-0.38,0.68s-0.16,0.72-0.19,1.25l-0.23,4.26
			L46.46,50.71z"/>
		<path class="st0" d="M58.58,43.62l-1.93,0.08l0.11-2.06c0.63,0,1.19-0.03,1.66-0.08c0.47-0.05,0.88-0.12,1.21-0.2
			c0.33-0.08,0.61-0.17,0.82-0.27c0.21-0.1,0.36-0.19,0.46-0.28h1.49c-0.24,2.09-0.45,3.94-0.64,5.55
			c-0.18,1.61-0.35,3.02-0.48,4.24s-0.25,2.26-0.35,3.13c-0.09,0.87-0.17,1.61-0.22,2.23c-0.05,0.61-0.09,1.12-0.12,1.52
			c-0.03,0.4-0.04,0.74-0.04,1.02c0,0.33,0.04,0.55,0.13,0.65c0.08,0.1,0.18,0.15,0.27,0.15c0.21,0,0.42-0.16,0.64-0.48
			c0.22-0.32,0.45-0.89,0.68-1.71l1.49,0.44c-0.12,0.47-0.28,0.95-0.48,1.46c-0.21,0.51-0.48,0.97-0.81,1.39
			c-0.33,0.42-0.74,0.77-1.22,1.04c-0.48,0.27-1.05,0.41-1.71,0.41c-0.33,0-0.65-0.05-0.95-0.14c-0.3-0.09-0.56-0.25-0.79-0.46
			c-0.23-0.21-0.41-0.49-0.54-0.83c-0.13-0.34-0.2-0.75-0.2-1.23c0-0.83,0.03-1.76,0.1-2.78c0.07-1.02,0.16-2.09,0.27-3.22
			c0.11-1.13,0.24-2.28,0.38-3.47C57.95,48.53,58.2,46.5,58.58,43.62z"/>
		<path class="st0" d="M76.98,48.09c-0.06,0.46-0.14,0.99-0.23,1.6c-0.09,0.61-0.18,1.24-0.27,1.91c-0.09,0.67-0.19,1.34-0.27,2.02
			c-0.09,0.68-0.17,1.33-0.24,1.95c-0.07,0.62-0.13,1.18-0.17,1.69c-0.05,0.51-0.07,0.92-0.07,1.23c0,0.33,0.04,0.55,0.13,0.65
			c0.09,0.1,0.18,0.15,0.27,0.15c0.11,0,0.22-0.04,0.33-0.11c0.11-0.07,0.23-0.19,0.35-0.36c0.12-0.17,0.24-0.4,0.36-0.68
			c0.12-0.28,0.24-0.63,0.36-1.04L79,57.55c-0.08,0.39-0.21,0.84-0.4,1.33c-0.18,0.5-0.43,0.96-0.74,1.4
			c-0.31,0.44-0.68,0.81-1.13,1.11c-0.44,0.3-0.96,0.45-1.56,0.45c-0.29,0-0.58-0.04-0.84-0.11c-0.27-0.08-0.5-0.21-0.7-0.4
			c-0.2-0.19-0.36-0.45-0.48-0.77c-0.12-0.32-0.18-0.72-0.18-1.21c0-0.24,0.01-0.51,0.03-0.81c0.02-0.3,0.05-0.57,0.08-0.8h-0.03
			c-0.34,0.8-0.69,1.46-1.06,1.98c-0.37,0.53-0.75,0.95-1.15,1.26c-0.4,0.31-0.8,0.53-1.21,0.66c-0.41,0.13-0.83,0.19-1.25,0.19
			c-0.5,0-0.97-0.1-1.41-0.3c-0.44-0.2-0.83-0.51-1.15-0.93c-0.33-0.42-0.59-0.94-0.78-1.57c-0.19-0.63-0.29-1.37-0.29-2.22
			c0-1.25,0.18-2.44,0.55-3.57c0.37-1.13,0.9-2.12,1.61-2.97c0.71-0.85,1.57-1.53,2.6-2.04c1.03-0.5,2.2-0.76,3.51-0.76
			c0.52,0,1.12,0.05,1.8,0.15C75.5,47.75,76.22,47.9,76.98,48.09z M69.53,59.4c0.34,0,0.66-0.15,0.95-0.45
			c0.29-0.3,0.57-0.7,0.82-1.21c0.25-0.5,0.49-1.09,0.7-1.76c0.21-0.67,0.39-1.37,0.54-2.11c0.15-0.74,0.28-1.48,0.38-2.24
			c0.1-0.76,0.17-1.48,0.21-2.17c-0.1-0.04-0.26-0.07-0.48-0.11c-0.22-0.04-0.44-0.05-0.66-0.05c-0.52,0-0.99,0.16-1.42,0.49
			c-0.43,0.33-0.8,0.81-1.11,1.45c-0.31,0.64-0.55,1.44-0.72,2.4c-0.17,0.96-0.26,2.07-0.26,3.33c0,0.75,0.09,1.34,0.28,1.77
			C68.96,59.19,69.21,59.4,69.53,59.4z"/>
		<path class="st0" d="M89,58.75c0-0.54,0.04-1.17,0.11-1.86c0.07-0.7,0.15-1.4,0.23-2.1c0.09-0.7,0.16-1.37,0.23-2.01
			c0.07-0.64,0.11-1.17,0.11-1.59c0-0.41-0.06-0.71-0.17-0.89c-0.12-0.18-0.32-0.27-0.6-0.27c-0.28,0-0.56,0.15-0.86,0.44
			s-0.58,0.69-0.86,1.18c-0.28,0.49-0.55,1.06-0.8,1.71c-0.25,0.65-0.47,1.33-0.66,2.03c-0.19,0.71-0.34,1.42-0.45,2.14
			c-0.11,0.72-0.17,1.4-0.17,2.03c0,0.13,0,0.28,0.01,0.46c0.01,0.18,0.01,0.37,0.02,0.56c0.01,0.19,0.02,0.37,0.03,0.54
			c0.01,0.17,0.02,0.31,0.03,0.42h-3.54c-0.02-0.19-0.03-0.35-0.05-0.48c-0.01-0.13-0.02-0.24-0.03-0.33
			c-0.01-0.09-0.01-0.18-0.01-0.25c0-0.08,0-0.16,0-0.25c0-0.39,0.03-0.87,0.07-1.43c0.05-0.56,0.11-1.15,0.18-1.78
			c0.07-0.63,0.15-1.26,0.24-1.9c0.09-0.64,0.17-1.25,0.24-1.82c0.07-0.57,0.13-1.08,0.18-1.52s0.07-0.78,0.07-1
			c0-0.3-0.04-0.5-0.12-0.59c-0.08-0.09-0.17-0.13-0.27-0.13c-0.21,0-0.42,0.16-0.64,0.48c-0.22,0.32-0.45,0.89-0.68,1.71
			l-1.49-0.44c0.08-0.39,0.2-0.84,0.37-1.33c0.17-0.5,0.39-0.96,0.68-1.4c0.29-0.44,0.65-0.81,1.08-1.11
			c0.43-0.3,0.94-0.45,1.54-0.45c0.29,0,0.58,0.04,0.86,0.11c0.28,0.08,0.52,0.21,0.74,0.4c0.21,0.19,0.39,0.45,0.52,0.77
			c0.13,0.32,0.19,0.72,0.19,1.21c0,0.18-0.01,0.34-0.01,0.48c-0.01,0.14-0.02,0.27-0.03,0.39c-0.01,0.12-0.03,0.24-0.05,0.37
			c-0.02,0.13-0.04,0.26-0.06,0.42h0.03c0.32-0.82,0.67-1.5,1.05-2.04c0.38-0.54,0.77-0.96,1.18-1.27c0.41-0.31,0.82-0.53,1.23-0.65
			c0.42-0.12,0.82-0.18,1.21-0.18c0.58,0,1.08,0.1,1.49,0.3c0.42,0.2,0.76,0.48,1.03,0.85c0.27,0.37,0.46,0.81,0.59,1.33
			c0.13,0.52,0.19,1.1,0.19,1.74c0,0.51-0.04,1.06-0.11,1.64c-0.07,0.59-0.15,1.18-0.23,1.78c-0.09,0.6-0.16,1.2-0.23,1.79
			c-0.07,0.59-0.11,1.14-0.11,1.64c0,0.3,0.04,0.5,0.13,0.59c0.09,0.09,0.18,0.13,0.28,0.13c0.21,0,0.42-0.16,0.64-0.48
			s0.45-0.89,0.68-1.71l1.49,0.44c-0.08,0.39-0.23,0.84-0.44,1.33c-0.21,0.5-0.49,0.96-0.83,1.4c-0.34,0.44-0.76,0.81-1.24,1.11
			c-0.48,0.3-1.03,0.45-1.65,0.45c-0.51,0-0.93-0.07-1.26-0.21c-0.33-0.14-0.59-0.34-0.78-0.61c-0.19-0.27-0.33-0.59-0.41-0.98
			C89.04,59.66,89,59.23,89,58.75z"/>
		<path class="st0" d="M107.83,50.81c0,0.55-0.16,1-0.47,1.34c-0.31,0.34-0.74,0.52-1.27,0.54c-0.31,0.01-0.58-0.04-0.8-0.15
			c-0.22-0.11-0.4-0.24-0.53-0.41c-0.13-0.17-0.23-0.34-0.29-0.54c-0.06-0.19-0.09-0.37-0.09-0.53c0-0.16,0.02-0.35,0.06-0.56
			c0.04-0.21,0.11-0.4,0.21-0.58c-0.07-0.17-0.23-0.32-0.46-0.44c-0.24-0.12-0.52-0.18-0.84-0.18c-0.39,0-0.74,0.09-1.03,0.28
			s-0.55,0.44-0.77,0.74c-0.22,0.31-0.4,0.66-0.54,1.06c-0.14,0.4-0.26,0.82-0.34,1.25c-0.09,0.43-0.15,0.86-0.19,1.29
			c-0.05,0.43-0.07,0.83-0.08,1.19c-0.03,0.75,0.02,1.38,0.15,1.9c0.13,0.51,0.3,0.93,0.52,1.26c0.22,0.33,0.47,0.57,0.75,0.73
			c0.28,0.16,0.57,0.25,0.85,0.27c0.25,0.03,0.54,0.01,0.86-0.04c0.32-0.05,0.65-0.18,0.98-0.38c0.34-0.2,0.67-0.49,1.01-0.88
			c0.33-0.39,0.65-0.9,0.93-1.54l1.57,0.76c-0.39,0.9-0.82,1.65-1.28,2.24c-0.46,0.59-0.95,1.06-1.46,1.41
			c-0.51,0.35-1.04,0.6-1.58,0.74c-0.55,0.14-1.1,0.22-1.68,0.23c-0.81-0.01-1.54-0.13-2.2-0.38c-0.66-0.24-1.23-0.61-1.7-1.1
			c-0.47-0.49-0.84-1.11-1.1-1.86c-0.26-0.75-0.39-1.64-0.39-2.65c0-0.59,0.06-1.21,0.18-1.85c0.12-0.64,0.3-1.27,0.55-1.89
			c0.25-0.62,0.56-1.2,0.93-1.76c0.38-0.56,0.81-1.05,1.31-1.47c0.5-0.42,1.07-0.76,1.7-1.01c0.63-0.25,1.33-0.38,2.09-0.38
			c0.63,0,1.21,0.08,1.76,0.23c0.54,0.16,1.01,0.38,1.41,0.67c0.39,0.29,0.7,0.64,0.93,1.05C107.71,49.86,107.83,50.31,107.83,50.81
			z"/>
		<path class="st0" d="M115.01,61.84c-0.93,0-1.74-0.17-2.43-0.5c-0.69-0.33-1.27-0.78-1.73-1.34c-0.46-0.56-0.8-1.22-1.03-1.98
			c-0.23-0.76-0.34-1.57-0.34-2.43c0-1.1,0.16-2.14,0.48-3.12c0.32-0.98,0.78-1.84,1.38-2.57c0.6-0.74,1.33-1.32,2.18-1.76
			c0.85-0.43,1.81-0.65,2.86-0.65c0.76,0,1.48,0.14,2.15,0.41c0.67,0.27,1.26,0.67,1.76,1.19c0.5,0.52,0.89,1.16,1.18,1.92
			c0.29,0.76,0.44,1.63,0.44,2.6c0,1.09-0.16,2.13-0.48,3.12c-0.32,0.99-0.77,1.87-1.37,2.62c-0.59,0.76-1.32,1.36-2.17,1.8
			C117.05,61.62,116.09,61.84,115.01,61.84z M118.11,54.43c0.01-0.33,0-0.69-0.01-1.07c-0.02-0.38-0.06-0.76-0.11-1.14
			c-0.06-0.38-0.14-0.74-0.24-1.09c-0.1-0.35-0.23-0.65-0.4-0.92c-0.16-0.26-0.36-0.48-0.59-0.64s-0.5-0.25-0.8-0.25
			c-0.42-0.01-0.8,0.13-1.13,0.43c-0.34,0.29-0.62,0.69-0.86,1.19c-0.24,0.5-0.42,1.09-0.55,1.76c-0.13,0.67-0.19,1.38-0.19,2.13
			c0,0.55,0.03,1.14,0.1,1.74c0.07,0.61,0.19,1.17,0.36,1.68c0.17,0.51,0.4,0.93,0.68,1.27c0.29,0.33,0.65,0.5,1.09,0.5
			c0.31,0,0.59-0.09,0.84-0.26c0.25-0.17,0.47-0.41,0.67-0.69c0.2-0.29,0.36-0.62,0.5-1s0.25-0.78,0.35-1.19
			c0.09-0.42,0.17-0.83,0.21-1.25C118.07,55.2,118.1,54.8,118.11,54.43z"/>
	</g>
</g>
</svg>
