<?xml version="1.0" encoding="utf-8"?>
<!-- Generator: Adobe Illustrator 23.0.1, SVG Export Plug-In . SVG Version: 6.00 Build 0)  -->
<svg version="1.1" id="Layer_1" xmlns="http://www.w3.org/2000/svg" xmlns:xlink="http://www.w3.org/1999/xlink" x="0px" y="0px"
	 viewBox="0 0 136.93 100" style="enable-background:new 0 0 136.93 100;" xml:space="preserve">
<style type="text/css">
	.st0{fill:#F89827;}
</style>
<g>
	<g>
		<path class="st0" d="M15.74,53.81c1.05,0,1.93,0.15,2.65,0.46c0.72,0.31,1.27,0.76,1.64,1.34c0.37,0.59,0.55,1.32,0.54,2.19
			c-0.02,0.87-0.24,1.86-0.67,2.97c-0.41,1.09-0.81,2.1-1.2,3.03c-0.39,0.93-0.77,1.84-1.15,2.75c-0.43,1.05-0.86,1.88-1.28,2.51
			c-0.43,0.63-0.9,1.11-1.4,1.44c-0.51,0.33-1.07,0.55-1.69,0.64c-0.62,0.1-1.34,0.14-2.16,0.14H2.94l6.97-17.48H15.74z M15.14,58.9
			c0.11-0.29,0.11-0.53-0.01-0.74c-0.12-0.21-0.31-0.31-0.58-0.31H13.6l-3.95,9.87h0.95c0.27,0,0.55-0.1,0.83-0.3
			s0.48-0.45,0.59-0.75L15.14,58.9z"/>
		<path class="st0" d="M29.39,55.52c1.06,0,1.97,0.16,2.71,0.48c0.75,0.32,1.31,0.78,1.69,1.4c0.38,0.62,0.57,1.38,0.56,2.27
			c-0.01,0.9-0.23,1.91-0.68,3.06c-0.22,0.55-0.39,0.99-0.51,1.3c-0.12,0.31-0.23,0.58-0.32,0.82c-0.1,0.24-0.19,0.48-0.3,0.74
			c-0.1,0.25-0.25,0.61-0.44,1.07c-0.46,1.08-0.91,1.94-1.34,2.59c-0.44,0.65-0.91,1.15-1.43,1.49c-0.52,0.34-1.09,0.56-1.74,0.67
			c-0.64,0.1-1.38,0.15-2.22,0.15h-2.38c-0.68,0-1.34-0.1-1.96-0.3c-0.63-0.2-1.13-0.54-1.51-1.01c-0.38-0.48-0.59-1.11-0.64-1.89
			c-0.05-0.78,0.17-1.76,0.64-2.94c0.14-0.36,0.3-0.78,0.48-1.26c0.16-0.41,0.35-0.91,0.57-1.5c0.22-0.59,0.49-1.27,0.81-2.05
			c0.62-1.54,1.51-2.77,2.68-3.7c1.17-0.93,2.59-1.39,4.27-1.39H29.39z M28.7,60.87c0.13-0.29,0.13-0.53,0-0.73
			c-0.13-0.2-0.33-0.3-0.59-0.3c-0.4,0-0.68,0.08-0.86,0.23c-0.17,0.15-0.35,0.43-0.52,0.84l-2.09,5.37
			c-0.24,0.6-0.31,0.99-0.21,1.17c0.1,0.17,0.29,0.26,0.59,0.26c0.35,0,0.64-0.08,0.87-0.23c0.23-0.15,0.42-0.42,0.58-0.82
			L28.7,60.87z"/>
		<path class="st0" d="M45.94,56.09c0.68,0.19,1.22,0.44,1.62,0.76c0.4,0.32,0.67,0.69,0.81,1.13c0.14,0.44,0.19,0.9,0.14,1.39
			c0,0.44-0.07,0.86-0.21,1.26l-4.19,10.65h-5.07l3.81-10.23c0.11-0.27,0.11-0.51,0.01-0.71c-0.1-0.21-0.29-0.31-0.56-0.31
			c-0.27,0-0.54,0.1-0.82,0.31c-0.28,0.21-0.48,0.44-0.61,0.71l-4.16,10.23h-5.18l6.23-15.48h5.61
			C44.4,55.81,45.26,55.9,45.94,56.09z"/>
		<path class="st0" d="M60.15,55.89c0.69,0.25,1.24,0.61,1.66,1.09c0.42,0.48,0.69,1.07,0.81,1.77c0.12,0.7,0.08,1.5-0.13,2.4
			l-0.07,0.19c-0.21,0.68-0.48,1.29-0.82,1.83c-0.34,0.54-0.79,1-1.34,1.38c-0.56,0.38-1.23,0.68-2.03,0.9
			c-0.8,0.22-1.76,0.35-2.87,0.38l1.66-4.97c0.13-0.29,0.13-0.53,0.01-0.73c-0.12-0.2-0.32-0.3-0.61-0.3c-0.4,0-0.68,0.08-0.86,0.23
			c-0.17,0.15-0.34,0.43-0.5,0.84l-2.21,5.64c-0.17,0.49-0.2,0.81-0.08,0.95c0.12,0.14,0.31,0.21,0.58,0.21
			c0.76,0,1.59-0.01,2.49-0.02c0.9-0.02,1.79-0.13,2.68-0.36h0.05c0.02,0,0.02,0,0.02-0.01c0-0.01,0.01-0.01,0.02-0.01
			c0.14-0.03,0.31-0.06,0.49-0.07c0.18-0.02,0.34-0.01,0.49,0.02c0.14,0.03,0.25,0.09,0.31,0.18c0.06,0.09,0.06,0.23-0.02,0.42
			c0,0.03-0.01,0.07-0.04,0.11c-0.02,0.04-0.04,0.07-0.04,0.08c-0.4,0.76-0.8,1.37-1.2,1.83c-0.4,0.46-0.84,0.81-1.32,1.06
			c-0.48,0.25-1,0.41-1.58,0.49c-0.58,0.08-1.24,0.12-1.99,0.12h-2.4c-0.68,0-1.33-0.1-1.95-0.3c-0.62-0.2-1.12-0.54-1.5-1.01
			c-0.38-0.48-0.59-1.11-0.64-1.89c-0.05-0.78,0.16-1.76,0.62-2.94c0.14-0.36,0.3-0.78,0.48-1.26c0.16-0.41,0.35-0.91,0.58-1.5
			c0.23-0.59,0.5-1.27,0.82-2.05c0.6-1.54,1.49-2.77,2.66-3.7c1.17-0.93,2.6-1.39,4.28-1.39h1.05
			C58.65,55.52,59.46,55.64,60.15,55.89z"/>
		<path class="st0" d="M80.73,53.81c1.05,0,1.93,0.15,2.65,0.46c0.72,0.31,1.27,0.76,1.64,1.34c0.37,0.59,0.55,1.32,0.54,2.19
			c-0.02,0.87-0.24,1.86-0.67,2.97c-0.41,1.09-0.81,2.1-1.2,3.03c-0.39,0.93-0.77,1.84-1.15,2.75c-0.43,1.05-0.86,1.88-1.28,2.51
			c-0.43,0.63-0.9,1.11-1.4,1.44c-0.51,0.33-1.07,0.55-1.69,0.64c-0.62,0.1-1.34,0.14-2.16,0.14h-8.06l6.97-17.48H80.73z
			 M80.14,58.9c0.11-0.29,0.11-0.53-0.01-0.74c-0.12-0.21-0.31-0.31-0.58-0.31h-0.95l-3.95,9.87h0.95c0.27,0,0.55-0.1,0.83-0.3
			s0.48-0.45,0.59-0.75L80.14,58.9z"/>
		<path class="st0" d="M88.51,55.81h5.09l-6.3,15.48h-5.09L88.51,55.81z M94.88,52.62l-0.81,2h-5.09l0.31-0.81
			c0.16-0.36,0.4-0.65,0.71-0.87c0.32-0.21,0.66-0.32,1.02-0.32H94.88z"/>
		<path class="st0" d="M101.68,71.29h-7.11c-0.68,0-1.33-0.1-1.95-0.3c-0.62-0.2-1.12-0.54-1.5-1.01c-0.38-0.48-0.59-1.11-0.64-1.89
			s0.17-1.76,0.64-2.94c0.1-0.3,0.23-0.67,0.4-1.12c0.14-0.38,0.32-0.85,0.54-1.42c0.21-0.56,0.48-1.23,0.8-2.01
			c0.6-1.54,1.49-2.77,2.66-3.7c1.17-0.93,2.6-1.39,4.28-1.39h1.05c0.76,0,1.45,0.09,2.07,0.26l0.81-1.97
			c0.16-0.36,0.4-0.65,0.71-0.86c0.32-0.21,0.66-0.31,1.02-0.31h3.85L101.68,71.29z M96.24,66.03c-0.25,0.6-0.33,0.99-0.23,1.17
			c0.1,0.18,0.31,0.26,0.61,0.26c0.35,0,0.63-0.07,0.86-0.22c0.22-0.14,0.41-0.41,0.57-0.81l2.12-5.56
			c0.13-0.29,0.13-0.53,0.01-0.73c-0.12-0.2-0.32-0.3-0.61-0.3c-0.4,0-0.68,0.08-0.84,0.23c-0.17,0.15-0.34,0.43-0.51,0.85
			L96.24,66.03z"/>
		<path class="st0" d="M116.5,71.29h-5.09l7.11-17.48h5.09L116.5,71.29z"/>
		<path class="st0" d="M132.57,57.76l-1.64,4.04h-4.23l-3.85,9.49h-5.11l7.13-17.48c0.13-0.32,0.36-0.59,0.7-0.83
			c0.34-0.24,0.69-0.36,1.06-0.36h3.83l-2.12,5.14H132.57z"/>
		<path class="st0" d="M134.36,68.29l-1.19,3h-3.26c-0.17,0-0.33-0.05-0.46-0.15c-0.13-0.1-0.15-0.29-0.04-0.56l0.88-2.28H134.36z"
			/>
	</g>
</g>
<g>
	<path d="M101.68,5.23c0.53,0.21,0.8,0.41,0.8,0.6c-1.76,2.6-2.79,3.9-3.07,3.9c-0.87,0-1.62,0.75-2.25,2.25
		c-4.65,6.64-11.2,20.58-19.64,41.82c-7.74,20.29-13.55,34.02-17.42,41.19c-1.02,1.37-2.05,2.05-3.07,2.05
		c-1.14,0-1.96-0.54-2.48-1.62c-0.84-2.35-1.25-6.32-1.25-11.9c0-2.62,0.42-15.53,1.25-38.74v-0.2c0-0.44-0.08-1.59-0.23-3.47
		c-2.28,2.96-7.74,14.23-16.4,33.82c-3.76,7.86-6.27,12.03-7.54,12.53h-1.45c-1.08,0-1.62-1.17-1.62-3.5
		c0-4.44,2.17-17.76,6.52-39.97c0.44-3.02,1.2-4.53,2.28-4.53h0.2c0.95,0.3,1.42,1.13,1.42,2.48v0.43h-1.2
		c-0.34,0-1.02,3.34-2.05,10.02c-3.42,15.88-5.12,26.67-5.12,32.37c0,0.11,0.06,0.53,0.17,1.25h0.2
		c3.91-6.43,9.93-18.87,18.08-37.32c3.02-6.26,5.19-9.39,6.52-9.39h0.43c1.23,0,1.85,1.63,1.85,4.9v1.02
		c-0.84,21.79-1.25,34.5-1.25,38.14v1.4c0,5.22,0.48,8.91,1.45,11.07h0.23C58.95,94.1,64,82.89,72.16,62.19
		c9.26-24.39,17.19-41.66,23.8-51.84C98.53,6.94,100.44,5.23,101.68,5.23z"/>
	<path d="M84.71,60.71h0.63c0.27,0.06,0.4,0.2,0.4,0.43v0.2c-1.63,3.76-2.45,6.22-2.45,7.4h0.17c1.48-0.8,3.41-2.04,5.78-3.73h0.2
		c0.23,0.15,0.5,0.23,0.83,0.23v0.6c-3.11,2.73-5.44,4.1-6.97,4.1h-0.63c-0.84,0-1.25-0.4-1.25-1.2v-0.23
		c0-0.97,0.14-1.72,0.43-2.25v-0.23h-0.2c-1.2,1.65-2.42,2.48-3.67,2.48h-0.43c-0.72,0-1.14-0.21-1.25-0.63v-0.6
		c0-1.59,1.02-3.04,3.07-4.33c0.74-0.4,1.42-0.6,2.05-0.6c0.61,0.15,1.09,0.23,1.45,0.23C83.88,61.34,84.5,60.71,84.71,60.71z
		 M78.16,67.06h0.17c2.05-1.73,3.07-2.75,3.07-3.07l-0.37-0.2h-0.43c-1.06,0.57-1.88,1.59-2.45,3.07V67.06z"/>
	<path d="M106.52,26.55h0.43c0.4,0,0.6,0.27,0.6,0.8c-0.68,2.03-2.13,4.7-4.33,8c0,0.3-1.22,3.04-3.67,8.2
		c-7.12,15.68-10.73,25.04-10.85,28.1c0.11,0.28,0.17,0.48,0.17,0.6h0.23c0.7,0,3.02-2.32,6.95-6.97c0.27-0.13,0.55-0.2,0.85-0.2
		h0.17c0.28,0.06,0.43,0.2,0.43,0.43v0.43c-3.55,5.03-6.55,7.54-9,7.54c-0.97,0-1.45-0.46-1.45-1.39v-0.85
		c0-3.7,6.15-18.52,18.45-44.46L106.52,26.55z"/>
	<path d="M99.85,62.42h0.37c1.12,0.11,1.68,0.6,1.68,1.45c0,0.74-1.51,1.55-4.53,2.42c-0.68,1.48-1.02,2.44-1.02,2.88h0.2
		c1.65-0.11,3.9-1.41,6.75-3.9h0.65c0.25,0.04,0.37,0.18,0.37,0.43v0.4c-2.73,2.73-5.12,4.1-7.17,4.1h-1.2
		c-0.97,0-1.45-0.4-1.45-1.2c0-0.74,0.34-1.57,1.02-2.48l-0.2-0.43v-0.4c0.28,0,1.31-0.95,3.07-2.85L99.85,62.42z M99.03,64.47h0.17
		l0.85-0.83C99.43,63.91,99.09,64.18,99.03,64.47z"/>
	<path d="M108.79,69.11c0.68,0.28,1.02,0.7,1.02,1.25c-0.61,0.53-1.42,0.8-2.45,0.8l-0.63-0.8v-0.43
		C106.74,69.53,107.43,69.26,108.79,69.11z"/>
</g>
</svg>
